<?xml version="1.0" encoding="UTF-8"?><svg id="Calque_2" xmlns="http://www.w3.org/2000/svg" viewBox="0 0 120.36 118.25"><defs><style>.cls-1{fill:#ce011f;}.cls-2{fill:#3c3c3c;}</style></defs><g id="Calque_1-2"><rect class="cls-1" x="87.66" width="29.08" height="37.64"/><path class="cls-1" d="m87.66,65.1c0,9.25-2.69,16.37-8.06,21.39-5.37,5.01-12.55,7.52-21.51,7.52s-15.62-2.45-20.94-7.35c-5.32-4.91-7.98-11.43-7.98-19.55V0H0v66.44c0,16.71,5.11,29.52,15.33,38.44,10.23,8.92,24.59,13.37,43.08,13.37s33.12-4.4,43.2-13.21c10.08-8.8,15.13-21.72,15.13-38.78v-1.59h-29.08v.43Z"/><polygon class="cls-1" points="35.75 10.74 35.75 39.33 39.74 39.33 39.74 32.63 42.67 29.72 46.74 39.33 50.78 39.33 45.41 26.57 49.18 22.39 56.5 39.33 58.03 39.33 63.52 26.23 69.1 39.33 70.62 39.33 78.98 20.05 74.88 20.05 69.85 31.75 64.97 20.05 62.15 20.05 57.22 31.75 52.16 20.05 46.86 20.05 39.74 27.14 39.74 10.74 35.75 10.74"/><path class="cls-2" d="m37.5,43.77v10.11c0,1.78.71,2.57,2.07,2.57s2.05-.79,2.05-2.57v-10.11h2.25v9.93c0,3.26-1.62,4.44-4.3,4.44s-4.32-1.18-4.32-4.44v-9.93h2.25Z"/><path class="cls-2" d="m45.71,43.77h2.74l4.09,10.5h.04v-10.5h2.13v14.1h-2.74l-4.09-10.78h-.04v10.78h-2.13v-14.1Z"/><path class="cls-2" d="m56.6,43.77h2.25v14.1h-2.25v-14.1Z"/><path class="cls-2" d="m59.73,43.77h2.39l2.39,11.26h.04l2.53-11.26h2.39l-3.55,14.1h-2.86l-3.32-14.1Z"/><path class="cls-2" d="m70.4,43.77h7.62v1.9h-5.37v3.91h5.06v1.9h-5.06v4.5h5.53v1.9h-7.78v-14.1Z"/><path class="cls-2" d="m79.45,43.77h4.98c1.97,0,3.57.99,3.57,3.64,0,1.82-.81,3.22-2.35,3.45v.04c1.4.14,2.13.91,2.21,2.88.02.91.04,2.01.08,2.86.04.69.38,1.02.67,1.22h-2.55c-.22-.26-.32-.69-.38-1.24-.08-.85-.06-1.64-.1-2.67-.04-1.54-.51-2.21-2.05-2.21h-1.84v6.12h-2.25v-14.1Zm4.05,6.28c1.44,0,2.25-.87,2.25-2.29,0-1.5-.65-2.29-2.13-2.29h-1.92v4.58h1.8Z"/><path class="cls-2" d="m91.38,53.5v.35c0,1.72.75,2.59,2.31,2.59,1.42,0,2.13-1.01,2.13-2.05,0-1.48-.75-2.13-2.01-2.51l-1.54-.53c-2.05-.79-2.94-1.85-2.94-3.87,0-2.57,1.74-3.99,4.38-3.99,3.62,0,3.99,2.25,3.99,3.71v.32h-2.25v-.3c0-1.28-.57-2.03-1.97-2.03-.97,0-1.9.53-1.9,2.03,0,1.2.61,1.82,2.11,2.39l1.52.55c1.99.71,2.86,1.8,2.86,3.73,0,3-1.82,4.25-4.66,4.25-3.49,0-4.28-2.33-4.28-4.3v-.33h2.25Z"/><path class="cls-2" d="m99.44,43.77h2.25v14.1h-2.25v-14.1Z"/><path class="cls-2" d="m106.03,45.66h-3.36v-1.9h8.9v1.9h-3.3v12.2h-2.25v-12.2Z"/><path class="cls-2" d="m114.33,52.36l-3.63-8.59h2.51l2.37,6.08,2.43-6.08h2.35l-3.77,8.59v5.51h-2.25v-5.51Z"/></g></svg>