<?xml version="1.0" encoding="UTF-8"?><svg id="Calque_1" xmlns="http://www.w3.org/2000/svg" viewBox="0 0 595.28 105.62"><defs><style>.cls-1{fill:#666767;}.cls-2{fill:#ce011f;}</style></defs><polygon class="cls-2" points="0 0 0 104.35 14.56 104.35 14.56 79.88 25.24 69.26 40.09 104.35 54.84 104.35 35.23 57.8 49 42.54 75.7 104.35 81.3 104.35 101.33 56.55 121.69 104.35 127.21 104.35 157.72 33.97 142.78 33.97 124.42 76.68 106.61 33.97 96.3 33.97 78.34 76.68 59.87 33.97 40.51 33.97 14.56 59.87 14.56 0 0 0"/><path class="cls-1" d="m172.2,83.41v-49.35h8.65v49.35c0,5.24.93,9.08,2.8,11.5,1.87,2.43,4.9,3.64,9.09,3.64,4.46,0,7.57-1.23,9.34-3.69,1.77-2.46,2.65-6.27,2.65-11.45v-49.35h8.65v49.35c0,6.88-1.75,12.3-5.26,16.27-3.51,3.97-8.64,5.95-15.38,5.95-13.7,0-20.54-7.4-20.54-22.21Z"/><path class="cls-1" d="m224.01,104.25V34.06h11.21l23.2,58.59h.2v-58.59h8.65v70.18h-11.89l-22.51-56.82h-.2v56.82h-8.65Z"/><path class="cls-1" d="m278.66,104.25V34.06h8.65v70.18h-8.65Z"/><path class="cls-1" d="m309.92,104.25l-17.1-70.18h9.04l13.76,60.26h.2l13.76-60.26h9.04l-17.69,70.18h-11.01Z"/><path class="cls-1" d="m344.13,104.25V34.06h36.27v7.67h-27.62v22.02h26.05v7.67h-26.05v25.16h28.8v7.67h-37.45Z"/><path class="cls-1" d="m389.64,104.25V34.06h22.71c5.57,0,9.96,1.56,13.17,4.67,3.21,3.11,4.82,7.42,4.82,12.93,0,4.32-.85,8.13-2.56,11.4-1.7,3.28-4.46,5.37-8.26,6.29v.2c2.95.33,5.29,1.57,7.03,3.74,1.74,2.16,2.7,4.82,2.9,7.96l.59,11.99c.2,3.6.59,6.16,1.18,7.67s1.44,2.62,2.56,3.34h-10.42c-1.25-1.24-2.03-4.62-2.36-10.12l-.59-10.91c-.2-3.01-.9-5.32-2.11-6.93-1.21-1.61-2.43-2.56-3.64-2.85-1.21-.29-2.77-.44-4.67-.44h-11.7v31.26h-8.65Zm8.65-63.11v24.77h8.55c1.51,0,2.7-.03,3.59-.1.89-.06,2.1-.33,3.64-.79,1.54-.46,2.77-1.13,3.69-2.01.92-.89,1.74-2.24,2.46-4.08.72-1.83,1.08-4.03,1.08-6.59,0-3.47-1.11-6.21-3.34-8.21-2.23-2-5.34-3-9.34-3h-10.32Z"/><path class="cls-1" d="m479.09,52.25h-8.65c0-8.32-3.64-12.48-10.91-12.48-3.67,0-6.52.98-8.55,2.95-2.03,1.97-3.05,4.78-3.05,8.45,0,2.69.61,4.93,1.82,6.73,1.21,1.8,2.8,3.18,4.77,4.13,1.97.95,4.11,1.8,6.44,2.56,2.33.75,4.67,1.57,7.03,2.46,2.36.88,4.52,1.98,6.49,3.29,1.97,1.31,3.55,3.18,4.77,5.6,1.21,2.42,1.82,5.37,1.82,8.85,0,3.87-.66,7.23-1.97,10.08-1.31,2.85-3.06,5.01-5.26,6.49-2.2,1.47-4.51,2.55-6.93,3.24-2.43.69-4.98,1.03-7.67,1.03-7.86,0-13.37-1.92-16.51-5.75s-4.72-9.71-4.72-17.64h8.65c0,1.97.05,3.56.15,4.77.1,1.21.38,2.64.84,4.28.46,1.64,1.15,2.92,2.07,3.83.92.92,2.23,1.72,3.93,2.41,1.7.69,3.77,1.03,6.19,1.03,3.47,0,6.37-1.15,8.7-3.44,2.33-2.29,3.49-5.27,3.49-8.95,0-2.69-.61-4.95-1.82-6.78-1.21-1.83-2.8-3.24-4.77-4.23s-4.13-1.85-6.49-2.6c-2.36-.75-4.7-1.61-7.03-2.56-2.33-.95-4.47-2.08-6.44-3.39-1.97-1.31-3.56-3.19-4.77-5.65s-1.82-5.42-1.82-8.9c0-1.51.13-3.01.39-4.52.26-1.51.84-3.19,1.72-5.06.89-1.87,2.05-3.49,3.49-4.87,1.44-1.38,3.44-2.54,6-3.49,2.56-.95,5.54-1.42,8.95-1.42,12.91,0,19.46,6.52,19.66,19.56Z"/><path class="cls-1" d="m489.8,104.25V34.06h8.65v70.18h-8.65Z"/><path class="cls-1" d="m531.18,41.73v62.52h-8.65v-62.52h-17.59v-7.67h43.94v7.67h-17.69Z"/><path class="cls-1" d="m568.05,76.72l-18.58-42.66h9.54l13.37,32.83,13.86-32.83h9.04l-18.58,42.66v27.52h-8.65v-27.52Z"/></svg>